<svg id="svg" version="1.1" width="400" height="400" viewBox="0 0 400 400" xmlns="http://www.w3.org/2000/svg" xmlns:xlink="http://www.w3.org/1999/xlink" ><g id="svgg"><path id="path0" d="M43.600 1.055 C 43.600 1.614,41.408 1.979,40.709 1.535 C 39.927 1.039,38.306 1.124,38.628 1.645 C 39.027 2.291,38.007 2.781,36.776 2.535 C 36.037 2.387,35.642 2.515,35.473 2.955 C 35.294 3.420,34.912 3.522,34.015 3.343 C 33.035 3.147,32.800 3.234,32.800 3.793 C 32.800 4.333,32.579 4.431,31.800 4.236 C 31.046 4.046,30.800 4.142,30.800 4.624 C 30.800 5.122,30.542 5.207,29.641 5.009 C 28.689 4.800,28.492 4.882,28.541 5.465 C 28.585 5.994,28.165 6.271,26.900 6.545 C 25.835 6.776,25.200 7.134,25.200 7.503 C 25.200 7.899,24.933 8.023,24.390 7.882 C 23.803 7.728,23.611 7.846,23.690 8.311 C 23.763 8.734,23.357 9.082,22.500 9.334 C 21.785 9.544,21.198 9.915,21.195 10.158 C 21.188 10.745,18.604 12.400,17.694 12.400 C 16.953 12.400,16.334 13.070,15.474 14.800 C 15.200 15.350,14.468 16.044,13.846 16.342 C 12.387 17.042,11.107 18.326,11.399 18.799 C 11.682 19.257,9.957 21.988,9.380 21.995 C 9.150 21.998,8.733 22.630,8.454 23.400 C 8.176 24.170,7.679 24.800,7.351 24.800 C 7.001 24.800,6.871 24.992,7.038 25.261 C 7.194 25.514,7.053 25.919,6.724 26.161 C 6.395 26.402,5.904 27.275,5.632 28.100 C 5.347 28.965,4.879 29.600,4.526 29.600 C 4.072 29.600,3.978 29.860,4.164 30.600 C 4.350 31.342,4.257 31.600,3.800 31.600 C 3.350 31.600,3.250 31.858,3.426 32.561 C 3.595 33.236,3.460 33.638,2.974 33.911 C 2.502 34.175,2.355 34.585,2.514 35.194 C 2.688 35.859,2.550 36.140,1.974 36.291 C 1.139 36.509,1.003 37.069,1.569 37.964 C 2.034 38.698,1.676 39.600,0.920 39.600 C 0.436 39.600,0.376 39.974,0.602 41.612 C 0.777 42.888,0.717 43.818,0.438 44.154 C 0.119 44.539,0.047 87.584,0.176 200.842 C 0.379 378.240,0.282 361.200,1.088 361.200 C 1.581 361.200,1.652 361.516,1.446 362.800 C 1.243 364.074,1.314 364.400,1.795 364.400 C 2.220 364.400,2.400 364.817,2.400 365.800 C 2.400 366.820,2.575 367.200,3.043 367.200 C 3.522 367.200,3.625 367.445,3.446 368.158 C 3.280 368.820,3.399 369.191,3.830 369.356 C 4.245 369.515,4.369 369.866,4.201 370.398 C 4.020 370.968,4.128 371.200,4.575 371.200 C 4.981 371.200,5.373 371.835,5.684 373.000 C 5.956 374.015,6.403 374.800,6.710 374.800 C 7.072 374.800,7.169 375.068,7.000 375.600 C 6.819 376.171,6.928 376.400,7.382 376.400 C 7.731 376.400,8.238 376.895,8.509 377.500 C 8.779 378.105,9.405 378.981,9.900 379.446 C 10.395 379.911,10.800 380.496,10.800 380.746 C 10.800 380.996,11.000 381.200,11.243 381.200 C 11.517 381.200,11.590 381.584,11.436 382.200 C 11.255 382.919,11.346 383.200,11.759 383.200 C 12.075 383.200,12.393 383.352,12.467 383.538 C 12.540 383.724,13.138 384.130,13.796 384.442 C 14.454 384.753,15.238 385.520,15.538 386.146 C 16.301 387.738,17.287 388.633,18.105 388.475 C 18.487 388.402,18.800 388.535,18.800 388.771 C 18.800 389.007,19.004 389.200,19.254 389.200 C 19.504 389.200,20.090 389.605,20.557 390.100 C 21.024 390.595,21.900 391.255,22.503 391.568 C 23.106 391.880,23.600 392.387,23.600 392.695 C 23.600 393.072,23.860 393.171,24.400 393.000 C 24.932 392.831,25.200 392.928,25.200 393.290 C 25.200 393.597,25.985 394.044,27.000 394.316 C 28.195 394.635,28.800 395.015,28.800 395.445 C 28.800 395.903,29.042 396.030,29.624 395.878 C 30.134 395.744,30.534 395.884,30.672 396.243 C 30.810 396.602,31.183 396.732,31.649 396.584 C 32.131 396.431,32.491 396.571,32.645 396.972 C 32.798 397.372,33.379 397.600,34.243 397.600 C 35.187 397.600,35.600 397.784,35.600 398.205 C 35.600 398.686,35.926 398.757,37.200 398.554 C 38.484 398.348,38.800 398.419,38.800 398.912 C 38.800 399.722,22.167 399.646,199.600 399.650 C 381.087 399.654,360.400 399.745,360.400 398.938 C 360.400 398.415,360.693 398.345,362.000 398.554 C 363.274 398.757,363.600 398.686,363.600 398.205 C 363.600 397.780,364.017 397.600,365.000 397.600 C 365.907 397.600,366.365 397.424,366.300 397.100 C 366.237 396.784,366.604 396.628,367.300 396.675 C 368.031 396.725,368.400 396.555,368.400 396.168 C 368.400 395.746,368.676 395.654,369.400 395.836 C 370.157 396.026,370.400 395.930,370.400 395.442 C 370.400 395.015,371.010 394.634,372.200 394.316 C 373.247 394.036,374.000 393.600,374.000 393.274 C 374.000 392.955,374.244 392.808,374.567 392.932 C 374.879 393.052,375.217 392.933,375.318 392.668 C 375.420 392.404,376.007 391.920,376.624 391.594 C 377.240 391.267,378.374 390.408,379.144 389.685 C 379.914 388.962,380.786 388.462,381.081 388.576 C 381.726 388.823,382.913 387.707,383.658 386.154 C 383.956 385.532,384.650 384.800,385.200 384.526 C 386.992 383.635,387.600 383.038,387.600 382.168 C 387.600 381.697,388.185 380.691,388.901 379.933 C 389.616 379.174,390.423 378.069,390.692 377.477 C 390.962 376.884,391.440 376.400,391.754 376.400 C 392.128 376.400,392.253 376.124,392.116 375.600 C 391.980 375.079,392.104 374.800,392.470 374.800 C 392.800 374.800,393.234 374.054,393.516 373.000 C 393.819 371.865,394.222 371.200,394.606 371.200 C 395.056 371.200,395.150 370.939,394.964 370.200 C 394.774 369.440,394.870 369.200,395.364 369.200 C 395.859 369.200,395.955 368.960,395.764 368.200 C 395.569 367.421,395.667 367.200,396.207 367.200 C 396.762 367.200,396.853 366.964,396.663 366.013 C 396.491 365.156,396.605 364.725,397.072 364.463 C 397.500 364.224,397.641 363.799,397.487 363.212 C 397.192 362.082,397.525 361.200,398.246 361.200 C 398.690 361.200,398.753 360.744,398.549 359.008 C 398.336 357.193,398.404 356.773,398.946 356.565 C 399.955 356.178,399.955 44.622,398.946 44.235 C 398.404 44.027,398.336 43.607,398.549 41.792 C 398.761 39.991,398.699 39.600,398.203 39.600 C 397.571 39.600,397.472 39.275,397.582 37.552 C 397.621 36.945,397.400 36.409,397.056 36.277 C 396.671 36.129,396.543 35.741,396.691 35.174 C 396.844 34.587,396.692 34.171,396.226 33.911 C 395.740 33.638,395.605 33.236,395.774 32.561 C 395.955 31.841,395.852 31.600,395.364 31.600 C 394.878 31.600,394.774 31.359,394.953 30.646 C 395.135 29.921,395.007 29.643,394.423 29.490 C 393.922 29.359,393.560 28.794,393.387 27.872 C 393.241 27.093,392.850 26.351,392.519 26.224 C 392.188 26.097,392.013 25.743,392.131 25.436 C 392.255 25.113,392.038 24.799,391.615 24.688 C 391.195 24.578,390.768 23.966,390.611 23.249 C 390.460 22.562,390.126 21.998,389.868 21.995 C 389.342 21.989,387.607 19.487,387.587 18.706 C 387.567 17.911,386.706 16.984,385.412 16.367 C 384.758 16.055,384.000 15.350,383.726 14.800 C 382.866 13.070,382.247 12.400,381.506 12.400 C 380.576 12.400,378.011 10.739,378.005 10.132 C 378.002 9.874,377.448 9.542,376.773 9.394 C 376.098 9.246,375.449 8.872,375.330 8.562 C 375.212 8.253,374.873 8.000,374.577 8.000 C 374.282 8.000,373.896 7.764,373.720 7.475 C 373.544 7.186,372.770 6.769,372.000 6.550 C 371.043 6.276,370.619 5.929,370.659 5.452 C 370.708 4.883,370.504 4.801,369.559 5.009 C 368.658 5.207,368.400 5.122,368.400 4.624 C 368.400 4.143,368.154 4.046,367.404 4.235 C 366.682 4.416,366.336 4.300,366.150 3.813 C 365.969 3.343,365.613 3.211,364.967 3.373 C 364.343 3.529,363.922 3.389,363.672 2.942 C 363.425 2.501,363.004 2.358,362.412 2.513 C 361.259 2.814,360.400 2.472,360.400 1.711 C 360.400 1.146,360.029 1.126,358.200 1.593 C 357.186 1.851,355.600 1.551,355.600 1.100 C 355.600 0.701,324.133 0.600,199.600 0.600 C 83.376 0.600,43.600 0.716,43.600 1.055 M325.040 75.846 C 326.416 76.499,326.992 78.387,326.002 78.999 C 325.783 79.134,325.411 79.640,325.175 80.122 C 324.807 80.875,324.861 80.858,325.548 80.003 C 326.185 79.211,326.397 79.129,326.578 79.603 C 327.092 80.952,326.599 278.142,326.077 279.955 C 325.193 283.024,321.617 289.926,320.700 290.333 C 320.535 290.407,320.400 290.629,320.400 290.826 C 320.400 291.024,317.970 294.979,315.000 299.615 C 312.030 304.250,309.600 308.123,309.600 308.221 C 309.600 308.318,308.970 309.275,308.200 310.347 C 307.430 311.419,306.800 312.484,306.800 312.714 C 306.800 312.945,306.665 313.193,306.500 313.267 C 306.069 313.458,304.000 316.706,304.000 317.191 C 304.000 317.416,303.820 317.600,303.600 317.600 C 303.380 317.600,303.200 317.777,303.200 317.992 C 303.200 318.502,300.368 322.959,299.933 323.133 C 299.750 323.207,299.600 323.494,299.600 323.771 C 299.600 324.499,298.127 325.726,297.625 325.416 C 297.391 325.271,297.194 324.758,297.187 324.276 C 297.176 323.523,297.105 323.484,296.679 324.000 C 295.437 325.505,294.645 325.600,283.343 325.600 L 272.276 325.600 270.895 324.547 C 268.203 322.494,268.400 330.221,268.400 226.597 C 268.400 121.349,268.155 130.501,271.021 128.623 L 272.087 127.924 270.879 127.190 C 268.634 125.824,268.698 125.629,275.216 113.907 C 278.552 107.908,281.866 101.920,282.581 100.600 C 283.814 98.324,285.146 95.934,286.928 92.800 C 287.365 92.030,288.204 90.500,288.791 89.400 C 294.754 78.226,295.611 77.094,299.056 75.851 C 301.502 74.968,323.180 74.963,325.040 75.846 M160.548 75.978 C 162.281 76.380,164.578 78.086,165.423 79.600 C 166.044 80.712,168.800 86.766,168.800 87.019 C 168.800 87.108,169.316 88.309,169.947 89.690 C 170.578 91.070,171.457 93.010,171.901 94.000 C 172.346 94.990,173.115 96.700,173.611 97.800 C 174.107 98.900,175.456 101.960,176.609 104.600 C 177.762 107.240,179.357 110.808,180.153 112.529 C 180.949 114.250,181.600 115.731,181.600 115.819 C 181.600 115.908,182.140 117.159,182.800 118.600 C 183.460 120.041,184.000 121.299,184.000 121.395 C 184.000 121.491,184.810 123.303,185.800 125.422 C 186.790 127.540,187.600 129.342,187.600 129.426 C 187.600 129.593,188.946 132.601,191.044 137.121 C 191.790 138.728,192.400 140.118,192.400 140.211 C 192.400 140.304,192.916 141.509,193.547 142.890 C 195.005 146.080,197.166 150.941,199.910 157.200 C 200.248 157.970,201.328 160.304,202.310 162.386 C 203.292 164.468,204.323 166.808,204.601 167.586 C 204.879 168.364,205.557 169.990,206.108 171.200 C 206.659 172.410,207.491 174.245,207.955 175.278 C 209.390 178.468,209.103 181.337,207.033 184.494 C 206.325 185.575,206.328 185.592,207.281 185.955 C 212.838 188.068,214.889 196.833,211.112 202.327 C 209.851 204.161,209.848 204.012,211.200 207.400 C 211.376 207.840,211.736 208.830,212.000 209.600 C 212.264 210.370,212.634 211.360,212.822 211.800 C 213.251 212.804,214.929 218.012,215.592 220.400 C 215.868 221.390,216.243 222.650,216.427 223.200 C 216.813 224.356,217.834 228.753,218.191 230.800 C 218.326 231.570,218.609 233.190,218.821 234.400 C 219.261 236.910,219.855 242.517,220.245 247.835 C 220.715 254.232,219.367 266.286,217.141 275.600 C 216.694 277.470,216.235 279.587,216.120 280.304 C 216.005 281.021,215.751 281.706,215.556 281.827 C 215.360 281.948,215.200 282.420,215.200 282.875 C 215.200 283.616,213.666 288.771,212.753 291.100 C 212.559 291.595,212.241 292.405,212.046 292.900 C 211.851 293.395,211.454 294.610,211.163 295.600 C 210.710 297.147,210.033 298.878,208.428 302.600 C 208.238 303.040,207.600 304.470,207.010 305.778 C 206.419 307.086,206.028 308.526,206.141 308.978 C 206.253 309.430,206.554 310.610,206.810 311.600 C 207.827 315.537,206.749 320.349,203.853 324.800 C 200.954 329.257,199.832 329.667,197.524 327.116 C 195.640 325.034,195.629 324.514,197.434 322.778 C 201.010 319.342,201.939 314.060,199.717 309.800 C 197.664 305.863,193.258 303.200,188.800 303.200 C 185.595 303.200,183.244 304.129,180.299 306.559 C 178.056 308.409,177.322 308.279,175.255 305.669 L 173.983 304.064 175.705 302.318 C 178.742 299.237,183.343 297.250,187.721 297.130 C 189.218 297.089,190.565 296.863,190.715 296.628 C 191.057 296.093,192.106 293.260,193.689 288.600 C 194.362 286.620,195.057 284.640,195.234 284.200 C 195.412 283.760,195.857 282.320,196.224 281.000 C 196.591 279.680,197.051 278.187,197.246 277.681 C 197.441 277.176,197.600 276.331,197.600 275.805 C 197.600 275.278,197.761 274.748,197.958 274.626 C 198.155 274.505,198.406 273.729,198.516 272.903 C 198.626 272.076,199.006 270.230,199.360 268.800 C 200.727 263.281,200.987 260.508,200.970 251.600 C 200.954 242.702,200.763 240.656,199.407 234.800 C 197.450 226.348,197.413 226.209,196.194 222.400 C 195.595 220.530,195.015 218.503,194.906 217.895 C 194.797 217.287,194.549 216.692,194.354 216.571 C 194.159 216.451,194.000 216.001,194.000 215.571 C 194.000 215.141,193.838 214.477,193.641 214.095 C 193.444 213.713,192.975 212.590,192.600 211.600 C 192.225 210.610,191.756 209.487,191.559 209.105 C 191.362 208.723,191.200 208.138,191.200 207.805 C 191.200 206.800,83.273 206.894,82.951 207.900 C 82.828 208.285,82.585 208.960,82.412 209.400 C 82.238 209.840,81.783 211.010,81.400 212.000 C 81.017 212.990,80.522 214.250,80.299 214.800 C 79.060 217.854,76.400 226.147,76.400 226.955 C 76.400 227.316,76.239 227.923,76.043 228.305 C 75.846 228.687,75.491 229.900,75.254 231.000 C 74.603 234.020,73.702 238.345,73.225 240.731 C 72.676 243.483,72.676 253.846,73.226 256.976 C 73.781 260.139,74.601 263.963,75.418 267.200 C 75.779 268.630,76.161 270.250,76.267 270.800 C 76.373 271.350,76.606 272.160,76.783 272.600 C 76.961 273.040,77.587 274.930,78.174 276.800 C 78.761 278.670,79.396 280.560,79.585 281.000 C 79.774 281.440,80.591 283.600,81.401 285.800 C 82.211 288.000,83.116 290.343,83.411 291.006 C 83.707 291.669,84.125 292.677,84.341 293.246 C 84.687 294.154,85.029 294.310,87.162 294.533 C 88.497 294.672,89.907 294.955,90.295 295.161 C 90.683 295.366,91.900 295.925,93.000 296.403 C 94.933 297.242,98.800 300.553,98.800 301.370 C 98.800 301.865,95.564 305.200,95.084 305.200 C 94.892 305.200,93.971 304.574,93.037 303.809 C 81.081 294.012,65.258 307.809,75.077 319.470 C 77.591 322.456,77.562 322.201,75.609 324.191 C 73.360 326.483,72.890 326.459,70.658 323.938 C 65.523 318.138,64.427 309.102,68.166 303.396 C 68.729 302.537,68.677 302.276,67.432 299.735 C 65.872 296.549,64.958 294.468,63.420 290.600 C 62.808 289.060,62.152 287.440,61.963 287.000 C 61.526 285.984,59.067 278.375,58.407 276.000 C 58.132 275.010,57.748 273.750,57.554 273.200 C 57.203 272.207,56.707 270.037,55.955 266.200 C 52.883 250.524,53.525 236.861,58.051 221.600 C 58.279 220.830,58.562 219.703,58.679 219.095 C 58.796 218.487,59.051 217.892,59.246 217.771 C 59.441 217.651,59.600 217.252,59.600 216.885 C 59.600 216.315,60.890 212.492,61.991 209.800 C 62.518 208.512,63.693 205.823,63.856 205.534 C 63.938 205.387,63.581 204.757,63.063 204.134 C 58.365 198.484,58.483 190.723,63.323 187.032 C 64.067 186.464,64.873 186.000,65.114 186.000 C 66.012 186.000,65.982 185.209,65.016 183.391 C 63.144 179.872,63.245 178.753,65.989 172.600 C 66.675 171.060,67.390 169.440,67.577 169.000 C 67.764 168.560,68.407 167.120,69.006 165.800 C 69.604 164.480,70.809 161.780,71.682 159.800 C 72.556 157.820,73.704 155.250,74.235 154.088 C 74.766 152.927,75.200 151.904,75.200 151.816 C 75.200 151.728,75.721 150.518,76.357 149.128 C 76.994 147.738,77.918 145.700,78.411 144.600 C 78.903 143.500,79.719 141.697,80.223 140.593 C 80.726 139.489,81.505 137.655,81.953 136.518 C 82.402 135.381,83.496 132.891,84.384 130.985 C 85.273 129.080,86.000 127.462,86.000 127.389 C 86.000 127.317,86.606 125.940,87.347 124.329 C 88.088 122.718,89.279 120.050,89.994 118.400 C 90.709 116.750,91.657 114.590,92.100 113.600 C 93.713 110.001,94.911 107.348,96.044 104.872 C 96.680 103.482,97.200 102.271,97.200 102.182 C 97.200 102.093,97.716 100.891,98.347 99.510 C 98.978 98.130,99.897 96.100,100.390 95.000 C 100.882 93.900,101.806 91.862,102.443 90.472 C 103.079 89.082,103.600 87.872,103.600 87.784 C 103.600 87.571,105.388 83.593,106.829 80.600 C 108.009 78.149,109.616 76.683,111.859 76.011 C 113.389 75.552,158.581 75.522,160.548 75.978 M323.623 82.650 C 323.153 83.448,322.852 84.186,322.956 84.289 C 323.059 84.393,323.520 83.740,323.980 82.839 C 325.015 80.811,324.781 80.688,323.623 82.650 M316.214 95.835 C 315.841 96.404,315.605 96.938,315.689 97.022 C 315.773 97.107,316.158 96.641,316.544 95.988 C 317.406 94.528,317.148 94.409,316.214 95.835 M311.326 104.500 C 310.619 105.599,309.993 106.927,310.121 107.055 C 310.196 107.129,310.640 106.472,311.108 105.595 C 311.903 104.107,312.047 103.378,311.326 104.500 M132.317 108.328 C 131.942 108.478,133.799 108.600,136.443 108.600 C 139.088 108.600,140.835 108.483,140.326 108.340 C 139.092 107.993,133.180 107.985,132.317 108.328 M127.800 109.452 C 126.535 110.070,126.760 110.043,129.800 109.211 C 130.893 108.911,130.911 108.881,130.000 108.873 C 129.450 108.869,128.460 109.129,127.800 109.452 M143.600 109.421 C 144.590 109.733,145.580 109.977,145.800 109.963 C 146.500 109.921,143.434 108.861,142.600 108.857 C 142.160 108.855,142.610 109.109,143.600 109.421 M148.425 110.929 C 148.548 111.069,149.808 111.912,151.225 112.804 C 152.641 113.695,153.283 113.990,152.652 113.459 C 151.577 112.554,147.934 110.374,148.425 110.929 M121.300 112.396 C 120.585 112.832,120.000 113.275,120.000 113.381 C 120.000 113.486,120.630 113.201,121.400 112.747 C 122.170 112.293,122.800 111.849,122.800 111.760 C 122.800 111.505,122.674 111.558,121.300 112.396 M306.467 113.067 C 305.959 113.842,305.623 114.557,305.722 114.655 C 305.820 114.754,306.290 114.174,306.767 113.367 C 307.890 111.463,307.665 111.238,306.467 113.067 M304.450 116.606 C 303.267 118.610,303.386 118.901,304.636 117.062 C 305.205 116.224,305.587 115.454,305.485 115.352 C 305.383 115.250,304.917 115.814,304.450 116.606 M114.087 119.044 C 113.365 120.010,112.855 120.800,112.954 120.800 C 113.237 120.800,115.713 117.579,115.548 117.426 C 115.467 117.350,114.809 118.078,114.087 119.044 M158.400 119.600 C 158.870 120.260,159.344 120.800,159.454 120.800 C 159.564 120.800,159.270 120.260,158.800 119.600 C 158.330 118.940,157.856 118.400,157.746 118.400 C 157.636 118.400,157.930 118.940,158.400 119.600 M300.986 122.900 L 300.352 124.200 301.167 123.200 C 301.952 122.237,302.208 121.600,301.810 121.600 C 301.706 121.600,301.335 122.185,300.986 122.900 M134.624 123.013 C 134.196 123.336,134.025 123.600,134.244 123.600 C 134.462 123.600,134.879 123.375,135.170 123.100 C 135.594 122.700,135.737 122.700,135.883 123.100 C 135.984 123.375,136.254 123.600,136.482 123.600 C 136.733 123.600,136.701 123.362,136.400 123.000 C 135.791 122.266,135.609 122.268,134.624 123.013 M160.433 122.432 C 160.415 122.560,160.842 123.730,161.383 125.032 C 161.924 126.334,162.363 127.130,162.359 126.800 C 162.351 126.201,160.496 121.993,160.433 122.432 M131.464 125.227 C 130.448 126.122,129.232 127.427,128.763 128.127 C 128.074 129.156,128.174 129.100,129.288 127.832 C 130.045 126.970,131.370 125.668,132.232 124.938 C 133.095 124.209,133.690 123.609,133.556 123.606 C 133.422 123.603,132.481 124.332,131.464 125.227 M298.998 126.002 C 298.599 126.443,297.582 126.990,296.736 127.217 C 295.891 127.445,295.200 127.764,295.200 127.927 C 295.200 128.276,296.819 129.716,297.002 129.529 C 297.378 129.144,299.991 125.200,299.869 125.200 C 299.789 125.200,299.398 125.561,298.998 126.002 M109.649 128.200 C 109.616 128.640,109.496 129.450,109.383 130.000 L 109.177 131.000 109.606 130.019 C 109.842 129.479,109.961 128.669,109.872 128.219 C 109.713 127.421,109.707 127.421,109.649 128.200 M162.456 128.000 C 162.456 128.330,162.611 128.960,162.800 129.400 C 163.017 129.904,163.144 129.978,163.144 129.600 C 163.144 129.270,162.989 128.640,162.800 128.200 C 162.583 127.696,162.456 127.622,162.456 128.000 M131.184 130.423 C 130.705 131.096,130.379 131.713,130.461 131.794 C 130.543 131.876,131.014 131.326,131.508 130.571 C 132.623 128.871,132.371 128.756,131.184 130.423 M127.495 130.135 C 126.936 131.520,129.496 133.940,130.242 132.732 C 130.433 132.423,130.318 132.346,129.903 132.505 C 129.123 132.804,128.119 131.732,127.933 130.400 C 127.812 129.534,127.753 129.499,127.495 130.135 M108.937 134.200 C 108.939 135.960,109.009 136.630,109.093 135.689 C 109.178 134.749,109.177 133.309,109.091 132.489 C 109.005 131.670,108.936 132.440,108.937 134.200 M163.337 134.600 C 163.339 136.360,163.409 137.030,163.493 136.089 C 163.578 135.149,163.577 133.709,163.491 132.889 C 163.405 132.070,163.336 132.840,163.337 134.600 M109.462 139.400 C 109.596 140.280,109.772 141.075,109.853 141.167 C 110.156 141.510,109.929 139.368,109.581 138.600 C 109.329 138.042,109.293 138.285,109.462 139.400 M162.629 139.829 C 162.481 140.415,162.451 140.984,162.561 141.094 C 162.671 141.204,162.881 140.815,163.029 140.229 C 163.176 139.642,163.206 139.073,163.096 138.963 C 162.986 138.853,162.776 139.242,162.629 139.829 M161.691 142.900 C 161.010 144.784,161.104 145.294,161.826 143.630 C 162.153 142.877,162.366 142.099,162.301 141.902 C 162.235 141.705,161.960 142.154,161.691 142.900 M156.000 151.980 C 154.570 153.471,152.455 155.271,151.300 155.980 C 148.875 157.468,148.456 158.069,150.738 156.787 C 152.619 155.730,156.871 151.985,158.015 150.379 C 159.208 148.703,158.933 148.922,156.000 151.980 M116.400 152.600 C 117.146 153.370,117.847 154.000,117.957 154.000 C 118.067 154.000,117.546 153.370,116.800 152.600 C 116.054 151.830,115.353 151.200,115.243 151.200 C 115.133 151.200,115.654 151.830,116.400 152.600 M119.200 154.852 C 120.201 155.882,123.200 157.842,123.200 157.465 C 123.200 157.355,122.525 156.861,121.700 156.368 C 120.875 155.874,119.750 155.100,119.200 154.647 L 118.200 153.823 119.200 154.852 M124.400 158.200 C 124.950 158.514,125.580 158.772,125.800 158.772 C 126.020 158.772,125.750 158.514,125.200 158.200 C 124.650 157.886,124.020 157.628,123.800 157.628 C 123.580 157.628,123.850 157.886,124.400 158.200 M147.200 158.200 C 146.650 158.514,146.380 158.772,146.600 158.772 C 146.820 158.772,147.450 158.514,148.000 158.200 C 148.550 157.886,148.820 157.628,148.600 157.628 C 148.380 157.628,147.750 157.886,147.200 158.200 M128.833 159.744 C 128.925 159.823,129.540 160.008,130.200 160.156 C 131.076 160.352,131.238 160.315,130.800 160.018 C 130.260 159.653,128.432 159.398,128.833 159.744 M141.400 160.000 L 140.600 160.344 141.400 160.344 C 141.840 160.344,142.560 160.189,143.000 160.000 L 143.800 159.656 143.000 159.656 C 142.560 159.656,141.840 159.811,141.400 160.000 M134.500 160.694 C 135.545 160.776,137.255 160.776,138.300 160.694 C 139.345 160.612,138.490 160.544,136.400 160.544 C 134.310 160.544,133.455 160.612,134.500 160.694 M79.532 206.800 C 79.406 207.350,79.178 208.160,79.026 208.600 C 78.874 209.040,79.042 208.895,79.399 208.277 C 79.757 207.659,79.985 206.849,79.905 206.477 C 79.802 205.994,79.695 206.087,79.532 206.800 M204.400 206.400 C 203.867 206.745,203.867 206.788,204.400 206.788 C 204.730 206.788,205.270 206.613,205.600 206.400 C 206.133 206.055,206.133 206.012,205.600 206.012 C 205.270 206.012,204.730 206.187,204.400 206.400 M194.428 207.100 C 194.529 208.176,195.143 208.922,195.087 207.900 C 195.053 207.295,194.885 206.800,194.713 206.800 C 194.541 206.800,194.413 206.935,194.428 207.100 M165.733 213.160 C 168.569 214.567,171.660 217.582,173.018 220.265 L 174.200 222.600 174.200 256.200 L 174.200 289.800 173.158 292.019 C 171.687 295.150,168.465 298.149,165.210 299.416 L 162.600 300.431 135.791 300.316 L 108.982 300.200 106.367 298.912 C 102.235 296.878,99.704 293.602,98.555 288.800 C 97.769 285.514,97.791 226.796,98.579 223.495 C 99.882 218.044,104.483 213.395,109.600 212.359 C 110.370 212.203,122.880 212.104,137.400 212.138 L 163.800 212.200 165.733 213.160 M58.650 232.850 C 58.317 234.517,58.640 234.840,59.000 233.200 C 59.152 232.509,59.193 231.859,59.091 231.758 C 58.989 231.656,58.791 232.147,58.650 232.850 M71.000 233.600 C 70.848 234.291,70.807 234.941,70.909 235.042 C 71.011 235.144,71.209 234.653,71.350 233.950 C 71.683 232.283,71.360 231.960,71.000 233.600 M57.875 237.000 C 57.446 241.012,57.186 244.623,57.357 244.200 C 57.686 243.385,58.505 235.715,58.321 235.167 C 58.217 234.855,58.016 235.680,57.875 237.000 M215.709 236.800 C 215.709 237.790,215.787 238.195,215.882 237.700 C 215.978 237.205,215.978 236.395,215.882 235.900 C 215.787 235.405,215.709 235.810,215.709 236.800 M70.449 236.600 C 70.416 237.040,70.296 237.850,70.183 238.400 L 69.977 239.400 70.406 238.419 C 70.642 237.879,70.761 237.069,70.672 236.619 C 70.513 235.821,70.507 235.821,70.449 236.600 M203.295 237.200 C 203.295 237.750,203.432 238.740,203.600 239.400 C 203.872 240.470,203.905 240.492,203.905 239.600 C 203.905 239.050,203.768 238.060,203.600 237.400 C 203.328 236.330,203.295 236.308,203.295 237.200 M216.277 241.400 C 216.400 242.720,216.568 243.875,216.650 243.967 C 216.918 244.264,216.715 241.434,216.380 240.200 C 216.165 239.411,216.130 239.822,216.277 241.400 M69.714 241.400 C 69.717 242.500,69.795 242.903,69.887 242.295 C 69.979 241.686,69.977 240.786,69.882 240.295 C 69.787 239.803,69.711 240.300,69.714 241.400 M204.101 242.200 C 204.105 243.080,204.187 243.393,204.283 242.895 C 204.379 242.398,204.375 241.678,204.275 241.295 C 204.175 240.913,204.096 241.320,204.101 242.200 M204.600 252.186 C 204.600 256.264,204.690 259.600,204.800 259.600 C 205.136 259.599,205.230 247.489,204.905 246.086 C 204.729 245.328,204.600 247.905,204.600 252.186 M69.043 246.233 C 68.688 247.157,68.799 251.667,69.200 252.600 C 69.425 253.123,69.553 252.051,69.572 249.500 C 69.600 245.617,69.505 245.029,69.043 246.233 M57.247 252.233 C 57.273 253.095,57.439 254.340,57.615 255.000 C 57.818 255.756,57.854 255.238,57.715 253.600 C 57.467 250.686,57.175 249.831,57.247 252.233 M216.380 257.890 C 216.271 258.819,216.333 259.427,216.520 259.240 C 216.706 259.054,216.796 258.294,216.719 257.551 C 216.583 256.233,216.575 256.242,216.380 257.890 M76.016 281.454 C 76.007 281.704,76.263 282.514,76.584 283.254 C 76.906 283.994,77.176 284.396,77.184 284.146 C 77.193 283.896,76.937 283.086,76.616 282.346 C 76.294 281.606,76.024 281.204,76.016 281.454 M64.416 283.854 C 64.407 284.104,64.663 284.914,64.984 285.654 C 65.306 286.394,65.576 286.796,65.584 286.546 C 65.593 286.296,65.337 285.486,65.016 284.746 C 64.694 284.006,64.424 283.604,64.416 283.854 M197.291 288.500 C 196.610 290.384,196.704 290.894,197.426 289.230 C 197.753 288.477,197.966 287.699,197.901 287.502 C 197.835 287.305,197.560 287.754,197.291 288.500 M208.891 290.900 C 208.210 292.784,208.304 293.294,209.026 291.630 C 209.353 290.877,209.566 290.099,209.501 289.902 C 209.435 289.705,209.160 290.154,208.891 290.900 M68.014 293.025 C 68.006 293.259,68.441 294.339,68.979 295.425 C 69.517 296.511,69.957 297.220,69.956 297.000 C 69.953 296.438,68.032 292.505,68.014 293.025 M73.300 297.640 C 70.975 299.286,71.142 299.548,73.500 297.954 C 75.846 296.369,75.813 296.396,75.367 296.418 C 75.165 296.428,74.235 296.978,73.300 297.640 M201.385 302.300 C 203.484 304.521,203.791 304.700,204.121 303.900 C 204.234 303.625,204.616 302.725,204.969 301.900 C 205.322 301.075,205.517 300.400,205.402 300.400 C 205.287 300.400,204.905 301.120,204.553 302.000 C 203.751 304.005,203.454 303.997,201.215 301.900 C 199.426 300.224,199.428 300.230,201.385 302.300 " stroke="none" fill="#8bd3db" fill-rule="evenodd"></path><path id="path1" d="M325.100 81.238 C 324.495 82.029,324.000 82.776,324.000 82.899 C 324.000 83.096,323.353 84.269,320.365 89.488 C 319.959 90.196,318.965 91.996,318.156 93.488 C 317.346 94.979,316.554 96.380,316.395 96.600 C 316.237 96.820,315.658 97.810,315.109 98.800 C 314.561 99.790,313.612 101.500,313.002 102.600 C 312.392 103.700,311.763 104.780,311.605 105.000 C 311.446 105.220,310.654 106.621,309.844 108.112 C 307.689 112.084,306.960 113.363,305.821 115.166 C 305.260 116.056,304.800 116.870,304.800 116.974 C 304.800 117.079,304.286 118.037,303.657 119.103 C 302.423 121.196,301.066 123.596,298.944 127.435 L 297.598 129.869 297.699 227.235 C 297.764 289.558,297.939 324.600,298.187 324.600 C 298.509 324.600,303.745 316.597,311.663 304.000 C 312.562 302.570,313.815 300.651,314.449 299.735 C 315.082 298.819,315.600 297.975,315.600 297.860 C 315.600 297.745,317.206 295.140,319.169 292.071 C 324.016 284.492,324.617 283.246,325.962 278.000 C 326.306 276.658,326.395 251.207,326.312 178.000 L 326.200 79.800 325.100 81.238 M130.529 106.012 C 120.800 107.764,111.877 115.130,108.255 124.400 C 102.996 137.858,109.416 153.915,122.530 160.101 C 125.229 161.374,126.174 161.701,130.246 162.768 C 139.273 165.135,151.205 161.281,158.542 153.631 L 160.884 151.189 165.142 155.159 C 167.484 157.342,171.379 161.125,173.797 163.565 L 178.193 168.000 190.709 168.000 C 201.928 168.000,203.251 167.932,203.476 167.346 C 204.187 165.493,203.662 165.407,191.050 165.294 L 179.186 165.188 172.893 159.052 C 169.432 155.676,165.826 152.230,164.879 151.392 C 162.467 149.257,162.242 148.708,163.127 147.119 C 174.390 126.904,154.412 101.712,130.529 106.012 M141.894 108.456 C 159.588 112.688,168.506 130.148,160.968 145.800 C 152.752 162.863,128.633 166.183,115.690 152.032 C 112.776 148.846,111.149 145.792,109.263 139.972 C 105.616 128.717,114.188 114.245,127.400 109.350 C 130.832 108.079,138.372 107.613,141.894 108.456 M136.755 117.780 C 128.257 120.124,122.965 128.355,124.853 136.294 C 128.915 153.377,154.085 153.025,157.252 135.841 C 159.333 124.546,148.103 114.651,136.755 117.780 M136.771 123.454 C 137.898 124.887,137.815 125.468,136.376 126.212 C 134.614 127.123,132.050 129.539,131.326 130.970 C 130.029 133.533,129.605 133.755,128.331 132.533 C 126.242 130.533,127.750 127.669,132.823 124.000 C 135.416 122.125,135.695 122.086,136.771 123.454 M98.030 186.333 C 104.598 190.498,104.643 200.363,98.112 204.247 C 96.232 205.365,96.071 205.388,88.532 205.592 C 84.315 205.706,80.781 205.890,80.680 206.000 C 78.687 208.172,72.369 227.625,71.196 235.200 C 70.941 236.850,70.531 239.100,70.285 240.200 C 69.127 245.376,69.938 259.508,71.799 266.600 C 72.145 267.920,72.709 270.080,73.052 271.400 C 73.395 272.720,73.813 274.160,73.982 274.600 C 74.151 275.040,74.515 276.120,74.791 277.000 C 75.066 277.880,75.529 279.140,75.819 279.800 C 76.109 280.460,76.612 281.810,76.937 282.800 C 77.496 284.504,78.824 288.050,79.558 289.800 C 79.742 290.240,80.118 291.140,80.393 291.800 C 80.668 292.460,81.051 293.310,81.243 293.688 C 81.636 294.464,81.195 294.783,78.600 295.596 C 76.616 296.218,74.159 297.502,72.669 298.694 C 70.976 300.050,70.226 299.149,67.602 292.600 C 67.194 291.580,66.050 288.841,65.599 287.800 C 64.547 285.373,61.085 274.191,60.398 271.000 C 60.113 269.680,59.656 267.688,59.381 266.572 C 59.106 265.457,58.676 263.117,58.424 261.372 C 58.173 259.628,57.779 257.300,57.548 256.200 C 57.062 253.877,57.326 238.970,57.914 235.600 C 58.257 233.627,59.245 229.467,60.430 225.000 C 61.342 221.563,63.739 214.180,64.061 213.820 C 64.247 213.611,64.400 213.024,64.400 212.515 C 64.400 212.006,64.578 211.277,64.795 210.895 C 65.012 210.513,65.632 209.165,66.173 207.899 L 67.157 205.598 65.998 204.999 C 64.555 204.253,64.400 204.253,64.400 205.004 C 64.400 205.337,64.062 206.372,63.648 207.304 C 61.759 211.567,60.706 214.491,58.646 221.200 C 56.037 229.701,54.398 239.960,54.403 247.770 C 54.408 254.901,56.215 266.897,58.384 274.200 C 58.842 275.740,59.410 277.720,59.647 278.600 C 59.884 279.480,60.240 280.513,60.439 280.895 C 60.638 281.277,60.800 281.854,60.800 282.178 C 60.800 282.901,66.247 296.493,67.265 298.312 C 67.669 299.034,68.000 299.883,68.000 300.198 C 68.000 300.514,68.371 300.970,68.824 301.213 L 69.647 301.654 68.828 303.042 C 64.984 309.557,65.853 317.794,70.985 323.500 C 73.241 326.008,73.430 326.032,75.100 324.020 C 76.647 322.156,76.657 322.073,75.489 320.796 C 64.250 308.515,80.479 292.604,93.167 303.465 C 94.025 304.199,94.828 304.800,94.950 304.800 C 95.438 304.800,98.000 301.936,98.000 301.391 C 98.000 299.086,91.339 295.383,86.232 294.848 C 84.250 294.640,83.852 294.470,83.790 293.800 C 83.749 293.360,83.223 291.740,82.621 290.200 C 81.469 287.253,81.366 286.995,80.068 283.788 C 78.460 279.815,75.553 270.533,74.812 267.000 C 74.535 265.680,74.162 264.060,73.983 263.400 C 71.621 254.666,71.953 241.370,74.800 230.700 C 75.869 226.692,76.254 225.418,77.907 220.400 C 80.143 213.617,82.729 207.094,83.336 206.707 C 83.591 206.545,107.871 206.409,137.291 206.406 L 190.782 206.400 191.361 207.300 C 192.524 209.109,197.884 225.502,198.978 230.600 C 199.120 231.260,199.406 232.520,199.613 233.400 C 202.054 243.742,202.515 255.411,200.822 264.000 C 199.244 272.006,198.869 273.648,197.804 277.200 C 196.642 281.076,196.339 282.176,196.121 283.305 C 196.004 283.913,195.749 284.508,195.554 284.629 C 195.359 284.749,195.200 285.148,195.200 285.515 C 195.200 286.085,193.912 289.901,192.809 292.600 C 192.629 293.040,192.136 294.300,191.713 295.400 L 190.944 297.400 187.772 297.617 C 182.888 297.951,177.882 300.189,175.639 303.041 C 174.702 304.233,174.870 304.771,176.734 306.545 L 177.937 307.689 179.468 306.545 C 180.311 305.915,181.225 305.188,181.500 304.929 C 182.544 303.944,186.468 302.800,188.800 302.800 C 200.057 302.800,205.574 316.049,197.448 323.570 C 196.073 324.842,196.118 325.162,197.917 326.919 C 199.838 328.795,199.962 328.783,201.985 326.523 C 205.774 322.290,207.281 316.904,206.200 311.458 L 205.539 308.129 207.612 303.164 C 208.752 300.434,209.834 297.840,210.016 297.400 C 211.198 294.543,213.671 286.996,215.061 282.000 C 220.596 262.111,221.101 246.332,216.830 226.700 C 216.164 223.639,214.320 217.194,213.596 215.400 C 212.421 212.485,209.600 204.507,209.600 204.097 C 209.600 203.438,209.420 203.464,207.679 204.370 C 204.576 205.986,203.592 206.060,189.800 205.712 C 178.311 205.422,176.409 205.285,175.123 204.655 C 167.831 201.080,167.413 190.803,174.378 186.339 L 176.157 185.200 136.200 185.200 L 96.243 185.200 98.030 186.333 M207.064 205.907 C 207.319 206.070,207.830 207.012,208.201 208.001 C 208.571 208.991,209.017 210.160,209.191 210.600 C 209.654 211.769,212.262 220.206,213.023 223.000 C 213.806 225.873,214.165 227.413,214.796 230.600 C 215.057 231.920,215.425 233.360,215.613 233.800 C 216.979 236.998,217.471 254.864,216.386 261.900 C 215.260 269.200,214.943 270.858,213.540 276.800 C 212.383 281.699,209.023 292.512,207.512 296.200 C 207.061 297.300,206.401 298.908,206.046 299.773 C 205.691 300.638,205.040 302.113,204.600 303.049 L 203.800 304.752 201.491 302.619 C 199.467 300.749,195.514 298.400,194.389 298.400 C 193.907 298.400,193.874 296.699,194.345 296.180 C 194.535 295.971,195.177 294.360,195.771 292.600 C 196.366 290.840,197.001 289.040,197.183 288.600 C 197.364 288.160,197.792 286.900,198.134 285.800 C 198.475 284.700,199.106 282.810,199.535 281.600 C 199.965 280.390,200.795 277.510,201.380 275.200 C 201.965 272.890,202.603 270.370,202.799 269.600 C 203.166 268.154,204.286 260.415,204.332 259.000 C 204.347 258.560,204.483 256.526,204.636 254.480 C 204.915 250.736,204.494 245.648,203.339 238.800 C 203.024 236.930,202.662 234.680,202.535 233.800 C 202.409 232.920,201.596 229.680,200.729 226.600 C 199.862 223.520,199.002 220.460,198.819 219.800 C 198.226 217.662,196.703 213.453,195.740 211.289 C 195.223 210.128,194.800 208.924,194.800 208.613 C 194.800 208.302,194.628 207.941,194.417 207.811 C 192.951 206.904,194.669 206.398,199.343 206.360 C 202.014 206.338,204.650 206.176,205.200 206.000 C 206.543 205.570,206.534 205.570,207.064 205.907 M116.415 224.861 C 113.806 225.626,111.237 227.859,109.753 230.650 L 108.800 232.442 108.804 256.521 L 108.808 280.600 109.985 282.653 C 111.250 284.859,114.135 287.600,115.192 287.600 C 115.548 287.600,116.065 287.825,116.340 288.100 C 116.726 288.486,121.229 288.600,136.120 288.600 L 155.400 288.600 157.692 287.475 C 160.164 286.261,161.870 284.477,163.297 281.612 L 164.200 279.800 164.200 256.400 C 164.200 235.384,164.132 232.857,163.533 231.600 C 162.270 228.948,160.533 226.997,158.369 225.800 L 156.200 224.600 137.000 224.527 C 124.944 224.481,117.285 224.605,116.415 224.861 M156.106 227.598 C 161.699 230.227,161.581 229.605,161.591 256.454 L 161.600 279.109 160.482 281.248 C 159.669 282.806,158.834 283.716,157.414 284.594 L 155.463 285.800 136.231 285.800 L 117.000 285.800 115.136 284.506 C 114.111 283.794,112.851 282.534,112.336 281.706 L 111.400 280.200 111.278 257.800 C 111.127 229.987,111.074 230.295,116.491 227.668 C 119.104 226.402,153.431 226.341,156.106 227.598 M117.565 272.782 C 114.917 273.585,113.600 275.264,113.600 277.839 C 113.600 281.911,117.875 284.391,121.727 282.554 C 127.405 279.847,123.615 270.949,117.565 272.782 M120.159 275.357 C 123.406 276.714,121.600 281.418,118.163 280.555 C 115.911 279.990,115.419 277.720,117.169 275.969 C 118.526 274.613,118.427 274.633,120.159 275.357 " stroke="none" fill="#7c5636" fill-rule="evenodd"></path><path id="path2" d="M132.800 112.233 C 122.043 114.142,114.637 121.568,113.208 131.876 C 110.317 152.735,137.599 165.229,152.814 150.014 C 168.057 134.771,154.113 108.449,132.800 112.233 M144.723 117.639 C 153.273 119.639,158.766 127.620,157.252 135.841 C 154.085 153.025,128.915 153.377,124.853 136.294 C 122.244 125.318,133.275 114.961,144.723 117.639 M272.829 127.892 C 271.278 128.183,270.013 129.207,269.177 130.845 C 268.414 132.340,268.400 134.089,268.400 226.597 C 268.400 330.221,268.203 322.494,270.895 324.547 L 272.276 325.600 283.343 325.600 C 294.764 325.600,295.133 325.554,296.866 323.900 C 297.574 323.225,297.600 319.774,297.600 226.660 L 297.600 130.120 296.357 129.160 C 295.673 128.632,294.728 128.083,294.257 127.940 C 293.298 127.649,274.347 127.606,272.829 127.892 M65.400 185.723 C 57.564 190.380,57.440 201.228,65.183 204.661 C 67.406 205.647,90.556 206.188,95.119 205.361 C 103.946 203.761,105.852 191.294,98.030 186.333 L 96.243 185.200 81.222 185.224 C 70.370 185.241,65.978 185.379,65.400 185.723 M174.378 186.339 C 167.413 190.803,167.831 201.080,175.123 204.655 C 177.026 205.587,201.866 206.371,204.600 205.585 C 214.590 202.712,216.328 190.944,207.488 186.039 C 206.028 185.229,205.459 185.200,191.066 185.200 L 176.157 185.200 174.378 186.339 M64.400 212.820 C 64.400 213.161,64.247 213.611,64.061 213.820 C 63.679 214.248,61.253 221.452,60.768 223.600 C 60.594 224.370,60.104 226.466,59.678 228.258 L 58.905 231.517 64.153 231.779 C 67.039 231.924,69.869 232.131,70.442 232.240 C 71.424 232.427,71.523 232.293,72.168 229.919 C 73.744 224.120,74.969 220.190,76.694 215.400 L 77.847 212.200 71.123 212.200 C 65.317 212.200,64.399 212.285,64.400 212.820 M196.816 213.800 C 196.973 214.460,197.461 215.990,197.901 217.200 C 199.165 220.684,200.326 224.644,201.507 229.494 L 202.600 233.988 204.800 233.996 C 209.113 234.012,215.200 233.109,215.200 232.454 C 215.200 230.844,210.445 213.512,209.837 212.904 C 209.758 212.824,206.731 212.724,203.111 212.680 L 196.529 212.600 196.816 213.800 M57.864 257.600 C 58.318 261.106,58.884 264.408,59.442 266.800 C 59.775 268.230,60.245 270.300,60.488 271.400 C 61.582 276.369,63.054 280.202,63.839 280.124 C 65.043 280.004,74.990 278.336,75.093 278.237 C 75.183 278.150,74.595 276.230,73.978 274.600 C 73.811 274.160,73.396 272.720,73.056 271.400 C 72.715 270.080,72.086 267.650,71.657 266.000 C 71.229 264.350,70.650 261.470,70.370 259.600 L 69.862 256.200 63.772 256.200 L 57.682 256.200 57.864 257.600 M204.232 260.900 C 204.119 261.615,203.826 263.550,203.580 265.200 C 203.333 266.850,202.977 268.830,202.788 269.600 C 201.327 275.540,200.211 279.707,199.614 281.452 L 198.911 283.505 202.556 283.985 C 204.560 284.249,207.010 284.559,208.000 284.675 C 208.990 284.791,210.029 285.072,210.310 285.300 C 211.020 285.877,212.080 283.075,213.529 276.800 C 213.757 275.810,214.140 274.190,214.379 273.200 C 214.944 270.864,215.526 267.684,216.019 264.243 C 216.236 262.727,216.520 261.062,216.650 260.543 L 216.887 259.600 210.661 259.600 L 204.436 259.600 204.232 260.900 " stroke="none" fill="#fbbb1c" fill-rule="evenodd"></path><path id="path3" d="M50.400 0.400 C 50.400 0.666,100.533 0.800,200.000 0.800 C 299.467 0.800,349.600 0.666,349.600 0.400 C 349.600 0.134,299.467 0.000,200.000 0.000 C 100.533 0.000,50.400 0.134,50.400 0.400 M40.400 0.967 C 40.400 1.679,41.012 1.889,42.464 1.676 C 44.261 1.412,43.892 0.400,42.000 0.400 C 40.886 0.400,40.400 0.572,40.400 0.967 M355.600 0.955 C 355.600 1.500,357.429 1.990,358.336 1.688 C 359.523 1.292,358.736 0.400,357.200 0.400 C 356.103 0.400,355.600 0.574,355.600 0.955 M36.871 1.867 C 37.028 2.680,37.613 2.905,38.351 2.438 C 39.076 1.980,38.569 1.200,37.547 1.200 C 37.010 1.200,36.784 1.422,36.871 1.867 M360.400 1.757 C 360.400 2.382,361.478 2.923,362.036 2.578 C 362.801 2.105,362.383 1.200,361.400 1.200 C 360.812 1.200,360.400 1.430,360.400 1.757 M34.100 2.900 C 34.192 3.175,34.507 3.400,34.800 3.400 C 35.093 3.400,35.408 3.175,35.500 2.900 C 35.599 2.603,35.316 2.400,34.800 2.400 C 34.284 2.400,34.001 2.603,34.100 2.900 M363.700 2.900 C 363.792 3.175,364.107 3.400,364.400 3.400 C 364.693 3.400,365.008 3.175,365.100 2.900 C 365.199 2.603,364.916 2.400,364.400 2.400 C 363.884 2.400,363.601 2.603,363.700 2.900 M31.300 3.700 C 31.552 4.457,32.800 4.564,32.800 3.829 C 32.800 3.458,32.458 3.200,31.967 3.200 C 31.478 3.200,31.202 3.407,31.300 3.700 M366.100 3.700 C 366.192 3.975,366.597 4.200,367.000 4.200 C 367.403 4.200,367.808 3.975,367.900 3.700 C 368.006 3.383,367.676 3.200,367.000 3.200 C 366.324 3.200,365.994 3.383,366.100 3.700 M29.600 4.600 C 29.600 4.930,29.870 5.200,30.200 5.200 C 30.530 5.200,30.800 4.930,30.800 4.600 C 30.800 4.270,30.530 4.000,30.200 4.000 C 29.870 4.000,29.600 4.270,29.600 4.600 M368.400 4.600 C 368.400 4.930,368.670 5.200,369.000 5.200 C 369.330 5.200,369.600 4.930,369.600 4.600 C 369.600 4.270,369.330 4.000,369.000 4.000 C 368.670 4.000,368.400 4.270,368.400 4.600 M26.800 5.339 C 26.800 5.666,26.575 6.014,26.300 6.112 C 25.305 6.467,26.270 6.766,27.420 6.458 C 28.810 6.086,28.992 5.056,27.700 4.872 C 27.113 4.789,26.800 4.951,26.800 5.339 M370.578 5.235 C 370.225 5.807,370.747 6.281,372.100 6.615 C 373.377 6.931,373.464 6.717,372.511 5.605 C 371.749 4.715,370.990 4.569,370.578 5.235 M24.000 7.400 C 24.000 7.730,24.270 8.000,24.600 8.000 C 24.930 8.000,25.200 7.730,25.200 7.400 C 25.200 7.070,24.930 6.800,24.600 6.800 C 24.270 6.800,24.000 7.070,24.000 7.400 M373.600 7.213 C 373.600 7.439,373.915 7.743,374.300 7.888 C 374.685 8.032,375.180 8.368,375.400 8.635 C 375.961 9.314,377.600 9.755,377.600 9.227 C 377.600 8.992,377.420 8.800,377.200 8.800 C 376.980 8.800,376.800 8.530,376.800 8.200 C 376.800 7.867,376.444 7.600,376.000 7.600 C 375.560 7.600,375.200 7.420,375.200 7.200 C 375.200 6.980,374.840 6.800,374.400 6.800 C 373.960 6.800,373.600 6.986,373.600 7.213 M22.400 8.200 C 22.400 8.530,22.130 8.800,21.800 8.800 C 21.470 8.800,21.200 8.980,21.200 9.200 C 21.200 9.420,20.840 9.600,20.400 9.600 C 19.960 9.600,19.600 9.750,19.600 9.932 C 19.600 10.115,19.150 10.506,18.600 10.800 C 17.614 11.328,17.216 12.400,18.006 12.400 C 18.719 12.400,21.190 10.618,21.195 10.100 C 21.198 9.825,21.368 9.600,21.574 9.600 C 22.677 9.600,23.966 8.778,23.750 8.213 C 23.447 7.424,22.400 7.414,22.400 8.200 M378.005 10.100 C 378.010 10.618,380.481 12.400,381.194 12.400 C 381.875 12.400,381.655 11.939,380.404 10.743 C 379.157 9.552,377.996 9.240,378.005 10.100 M13.700 14.598 C 13.039 15.349,13.061 16.400,13.738 16.400 C 14.378 16.400,15.600 15.133,15.600 14.469 C 15.600 13.820,14.308 13.908,13.700 14.598 M383.600 14.538 C 383.600 15.178,384.867 16.400,385.531 16.400 C 386.182 16.400,386.118 15.261,385.429 14.571 C 384.707 13.849,383.600 13.829,383.600 14.538 M9.900 19.629 C 8.743 20.876,8.457 22.003,9.300 21.995 C 9.982 21.988,11.750 19.190,11.334 18.776 C 11.150 18.593,10.505 18.977,9.900 19.629 M387.600 18.806 C 387.600 19.519,389.382 21.990,389.900 21.995 C 390.760 22.004,390.448 20.843,389.257 19.596 C 388.061 18.345,387.600 18.125,387.600 18.806 M7.300 22.998 C 6.640 23.748,6.661 24.800,7.336 24.800 C 7.777 24.800,8.800 23.249,8.800 22.581 C 8.800 22.180,7.768 22.467,7.300 22.998 M390.400 22.574 C 390.400 22.670,390.576 23.210,390.790 23.774 C 391.253 24.991,392.400 25.152,392.400 24.000 C 392.400 23.556,392.133 23.200,391.800 23.200 C 391.470 23.200,391.200 23.020,391.200 22.800 C 391.200 22.580,391.020 22.400,390.800 22.400 C 390.580 22.400,390.400 22.478,390.400 22.574 M6.000 25.600 C 6.000 26.116,6.203 26.399,6.500 26.300 C 6.775 26.208,7.000 25.893,7.000 25.600 C 7.000 25.307,6.775 24.992,6.500 24.900 C 6.203 24.801,6.000 25.084,6.000 25.600 M392.200 25.200 C 391.908 25.672,392.287 26.400,392.824 26.400 C 393.031 26.400,393.200 26.040,393.200 25.600 C 393.200 24.756,392.618 24.524,392.200 25.200 M4.500 27.398 C 3.825 28.165,3.865 29.600,4.561 29.600 C 4.996 29.600,6.000 27.745,6.000 26.940 C 6.000 26.572,4.943 26.895,4.500 27.398 M393.200 27.174 C 393.200 27.380,393.376 28.010,393.590 28.574 C 394.100 29.915,395.200 29.932,395.200 28.600 C 395.200 27.978,394.973 27.600,394.600 27.600 C 394.270 27.600,394.000 27.420,394.000 27.200 C 394.000 26.980,393.820 26.800,393.600 26.800 C 393.380 26.800,393.200 26.968,393.200 27.174 M3.200 30.967 C 3.200 31.315,3.485 31.600,3.833 31.600 C 4.182 31.600,4.395 31.386,4.308 31.125 C 4.061 30.383,3.200 30.260,3.200 30.967 M394.800 31.000 C 394.800 31.330,395.070 31.600,395.400 31.600 C 395.730 31.600,396.000 31.330,396.000 31.000 C 396.000 30.670,395.730 30.400,395.400 30.400 C 395.070 30.400,394.800 30.670,394.800 31.000 M2.400 33.233 C 2.400 34.208,3.335 34.070,3.529 33.067 C 3.606 32.672,3.402 32.400,3.029 32.400 C 2.658 32.400,2.400 32.742,2.400 33.233 M395.671 33.067 C 395.865 34.070,396.800 34.208,396.800 33.233 C 396.800 32.742,396.542 32.400,396.171 32.400 C 395.798 32.400,395.594 32.672,395.671 33.067 M1.200 35.600 C 1.200 36.040,1.440 36.400,1.733 36.400 C 2.486 36.400,2.781 36.015,2.530 35.361 C 2.203 34.510,1.200 34.690,1.200 35.600 M396.670 35.361 C 396.445 35.949,396.703 36.400,397.267 36.400 C 397.450 36.400,397.600 36.040,397.600 35.600 C 397.600 34.683,396.991 34.526,396.670 35.361 M0.400 38.600 C 0.400 39.638,1.364 40.010,1.698 39.100 C 1.974 38.351,1.607 37.600,0.967 37.600 C 0.629 37.600,0.400 38.004,0.400 38.600 M397.502 38.100 C 397.226 38.849,397.593 39.600,398.233 39.600 C 398.571 39.600,398.800 39.196,398.800 38.600 C 398.800 37.562,397.836 37.190,397.502 38.100 M0.000 42.800 C 0.000 43.796,0.158 44.350,0.400 44.200 C 0.919 43.879,0.919 41.721,0.400 41.400 C 0.158 41.250,0.000 41.804,0.000 42.800 M398.476 42.669 C 398.654 44.779,399.600 44.917,399.600 42.833 C 399.600 41.620,399.439 41.200,398.976 41.200 C 398.501 41.200,398.381 41.552,398.476 42.669 M299.056 75.851 C 295.611 77.094,294.754 78.226,288.791 89.400 C 288.204 90.500,287.365 92.030,286.928 92.800 C 285.146 95.934,283.814 98.324,282.581 100.600 C 281.866 101.920,278.552 107.908,275.216 113.907 C 267.032 128.624,266.464 127.659,283.312 127.662 C 299.618 127.666,298.131 128.337,303.397 118.600 C 305.314 115.054,306.447 113.050,306.789 112.600 C 307.140 112.139,308.903 109.019,310.294 106.400 C 310.819 105.410,311.573 104.060,311.968 103.400 C 312.735 102.120,313.621 100.562,315.334 97.487 C 315.920 96.434,316.647 95.174,316.951 94.687 C 317.254 94.199,318.038 92.810,318.692 91.600 C 319.347 90.390,320.239 88.770,320.676 88.000 C 321.112 87.230,322.063 85.520,322.789 84.200 C 323.515 82.880,324.624 81.026,325.254 80.080 C 326.811 77.743,326.756 76.660,325.040 75.846 C 323.180 74.963,301.502 74.968,299.056 75.851 M130.600 109.034 C 129.280 109.367,127.757 109.749,127.215 109.883 C 117.699 112.233,109.200 123.800,109.200 134.400 C 109.200 138.430,110.244 142.447,112.369 146.592 C 118.292 158.145,133.730 163.541,146.400 158.487 C 164.182 151.393,168.899 129.837,155.621 116.351 C 153.815 114.517,148.461 110.800,147.625 110.800 C 147.385 110.800,146.877 110.625,146.495 110.411 C 143.487 108.724,134.811 107.973,130.600 109.034 M142.800 112.926 C 159.686 118.128,165.004 137.823,152.814 150.014 C 139.575 163.252,116.553 156.195,113.363 137.921 C 111.241 125.766,119.724 114.554,132.800 112.233 C 134.586 111.915,140.953 112.357,142.800 112.926 M134.200 123.506 C 132.027 124.631,128.000 129.071,128.000 130.341 C 128.000 132.648,129.690 133.181,130.723 131.200 C 131.507 129.695,133.353 127.775,135.174 126.570 C 136.882 125.440,137.233 124.376,136.229 123.371 C 135.914 123.057,135.599 122.819,135.529 122.842 C 135.458 122.866,134.860 123.164,134.200 123.506 M67.019 207.000 C 66.678 207.770,66.116 209.043,65.768 209.828 C 64.673 212.301,64.887 212.400,71.338 212.400 C 77.764 212.400,77.392 212.559,78.730 209.247 C 80.264 205.449,80.476 205.600,73.619 205.600 L 67.638 205.600 67.019 207.000 M205.843 206.292 C 205.675 206.461,203.166 206.690,200.268 206.800 L 195.000 207.000 195.141 208.000 C 195.218 208.550,195.668 209.810,196.141 210.800 L 197.000 212.600 203.100 212.710 C 210.101 212.837,209.761 213.091,208.079 208.987 C 206.981 206.306,206.457 205.675,205.843 206.292 M58.894 233.646 C 57.492 240.218,56.976 250.729,57.867 254.600 L 58.235 256.200 63.969 256.311 L 69.704 256.423 69.397 254.311 C 68.770 249.998,69.265 242.146,70.563 235.828 C 71.315 232.164,71.229 232.016,68.361 232.006 C 67.350 232.003,64.910 231.886,62.938 231.746 L 59.354 231.491 58.894 233.646 M210.200 233.618 C 209.100 233.790,207.075 233.946,205.700 233.965 C 202.810 234.005,202.936 233.691,203.772 238.743 C 205.068 246.575,205.290 249.059,205.149 254.106 L 205.000 259.400 210.368 259.512 C 213.511 259.578,215.899 259.461,216.129 259.231 C 217.380 257.980,216.574 238.245,215.111 234.300 C 214.663 233.092,214.090 233.013,210.200 233.618 M68.723 279.352 C 66.150 279.818,63.926 280.325,63.779 280.477 C 63.557 280.708,64.631 284.069,65.991 287.400 C 66.170 287.840,66.716 289.190,67.203 290.400 C 67.690 291.610,68.518 293.550,69.044 294.712 C 69.570 295.873,70.000 296.915,70.000 297.026 C 70.000 297.137,70.284 297.661,70.631 298.191 L 71.262 299.154 73.131 297.858 C 75.392 296.291,78.148 294.987,79.800 294.704 C 80.792 294.534,80.731 293.536,79.566 290.909 C 78.365 288.199,78.189 287.753,77.000 284.400 C 76.415 282.750,75.787 281.040,75.604 280.600 C 75.422 280.160,75.172 279.485,75.049 279.100 C 74.782 278.266,74.691 278.269,68.723 279.352 M199.044 284.100 C 198.409 286.524,195.364 295.375,194.710 296.699 C 194.465 297.194,194.341 297.653,194.433 297.719 C 194.525 297.785,195.795 298.431,197.255 299.156 C 198.715 299.881,200.597 301.177,201.436 302.037 C 203.738 304.395,203.844 304.292,206.611 297.000 C 207.195 295.460,207.823 293.840,208.006 293.400 C 208.188 292.960,208.641 291.700,209.011 290.600 C 209.382 289.500,209.862 288.222,210.078 287.760 C 210.934 285.931,210.369 285.022,208.200 284.736 C 207.100 284.591,204.940 284.282,203.400 284.049 C 199.738 283.496,199.201 283.502,199.044 284.100 M0.006 357.900 C 0.003 358.835,0.180 359.600,0.400 359.600 C 0.910 359.600,0.910 357.590,0.400 356.800 C 0.116 356.361,0.011 356.655,0.006 357.900 M398.667 356.667 C 398.114 357.220,398.384 359.600,399.000 359.600 C 399.433 359.600,399.600 359.156,399.600 358.000 C 399.600 356.499,399.285 356.048,398.667 356.667 M0.400 362.200 C 0.400 362.822,0.627 363.200,1.000 363.200 C 1.373 363.200,1.600 362.822,1.600 362.200 C 1.600 361.578,1.373 361.200,1.000 361.200 C 0.627 361.200,0.400 361.578,0.400 362.200 M397.441 361.836 C 397.138 362.627,397.466 363.200,398.224 363.200 C 398.572 363.200,398.800 362.804,398.800 362.200 C 398.800 361.081,397.831 360.822,397.441 361.836 M1.200 365.200 C 1.200 365.644,1.467 366.000,1.800 366.000 C 2.133 366.000,2.400 365.644,2.400 365.200 C 2.400 364.756,2.133 364.400,1.800 364.400 C 1.467 364.400,1.200 364.756,1.200 365.200 M396.600 364.800 C 396.308 365.272,396.687 366.000,397.224 366.000 C 397.431 366.000,397.600 365.640,397.600 365.200 C 397.600 364.356,397.018 364.124,396.600 364.800 M2.400 368.033 C 2.400 369.008,3.335 368.870,3.529 367.867 C 3.606 367.472,3.402 367.200,3.029 367.200 C 2.658 367.200,2.400 367.542,2.400 368.033 M395.671 367.867 C 395.865 368.870,396.800 369.008,396.800 368.033 C 396.800 367.542,396.542 367.200,396.171 367.200 C 395.798 367.200,395.594 367.472,395.671 367.867 M3.200 369.767 C 3.200 370.115,3.485 370.400,3.833 370.400 C 4.182 370.400,4.395 370.186,4.308 369.925 C 4.061 369.183,3.200 369.060,3.200 369.767 M394.800 369.800 C 394.800 370.130,395.070 370.400,395.400 370.400 C 395.730 370.400,396.000 370.130,396.000 369.800 C 396.000 369.470,395.730 369.200,395.400 369.200 C 395.070 369.200,394.800 369.470,394.800 369.800 M4.000 372.029 C 4.000 372.914,4.866 374.000,5.571 374.000 C 6.099 374.000,6.099 374.004,5.561 372.460 C 5.069 371.048,4.000 370.752,4.000 372.029 M393.637 372.465 C 393.395 373.161,393.312 373.836,393.453 373.965 C 393.594 374.094,393.790 373.975,393.888 373.700 C 393.986 373.425,394.322 373.200,394.633 373.200 C 394.971 373.200,395.200 372.796,395.200 372.200 C 395.200 370.770,394.167 370.945,393.637 372.465 M6.000 375.433 C 6.000 376.140,6.861 376.017,7.108 375.275 C 7.195 375.014,6.982 374.800,6.633 374.800 C 6.285 374.800,6.000 375.085,6.000 375.433 M392.000 375.400 C 392.000 375.730,392.270 376.000,392.600 376.000 C 392.930 376.000,393.200 375.730,393.200 375.400 C 393.200 375.070,392.930 374.800,392.600 374.800 C 392.270 374.800,392.000 375.070,392.000 375.400 M6.800 377.000 C 6.800 377.330,6.980 377.600,7.200 377.600 C 7.420 377.600,7.600 377.870,7.600 378.200 C 7.600 378.530,7.870 378.800,8.200 378.800 C 8.533 378.800,8.800 379.156,8.800 379.600 C 8.800 380.040,8.980 380.400,9.200 380.400 C 9.420 380.400,9.600 380.593,9.600 380.829 C 9.600 381.382,10.618 382.400,11.171 382.400 C 11.407 382.400,11.600 382.130,11.600 381.800 C 11.600 381.470,11.420 381.200,11.200 381.200 C 10.980 381.200,10.800 380.996,10.800 380.746 C 10.800 380.496,10.395 379.911,9.900 379.446 C 9.405 378.981,8.779 378.105,8.509 377.500 C 7.988 376.335,6.800 375.987,6.800 377.000 M390.692 377.477 C 390.423 378.069,389.616 379.174,388.901 379.933 C 387.165 381.773,387.286 383.571,389.029 381.829 C 389.343 381.514,389.600 381.064,389.600 380.829 C 389.600 380.593,389.780 380.400,390.000 380.400 C 390.220 380.400,390.400 380.040,390.400 379.600 C 390.400 379.160,390.580 378.800,390.800 378.800 C 391.020 378.800,391.200 378.530,391.200 378.200 C 391.200 377.870,391.470 377.600,391.800 377.600 C 392.130 377.600,392.400 377.330,392.400 377.000 C 392.400 375.998,391.215 376.329,390.692 377.477 M13.200 385.029 C 13.200 385.837,14.163 386.800,14.971 386.800 C 15.821 386.800,15.766 385.874,14.869 385.062 C 13.946 384.227,13.200 384.212,13.200 385.029 M384.262 385.131 C 382.987 386.540,384.085 387.572,385.429 386.229 C 386.151 385.507,386.171 384.400,385.462 384.400 C 385.166 384.400,384.626 384.729,384.262 385.131 M17.600 388.829 C 17.600 389.382,18.618 390.400,19.171 390.400 C 19.407 390.400,19.600 390.580,19.600 390.800 C 19.600 391.020,19.960 391.200,20.400 391.200 C 20.844 391.200,21.200 391.467,21.200 391.800 C 21.200 392.130,21.470 392.400,21.800 392.400 C 22.130 392.400,22.400 392.580,22.400 392.800 C 22.400 393.020,22.670 393.200,23.000 393.200 C 23.990 393.200,23.678 392.175,22.503 391.568 C 21.900 391.255,21.024 390.595,20.557 390.100 C 20.090 389.605,19.504 389.200,19.254 389.200 C 19.004 389.200,18.800 389.020,18.800 388.800 C 18.800 388.580,18.530 388.400,18.200 388.400 C 17.870 388.400,17.600 388.593,17.600 388.829 M379.300 389.513 C 378.585 390.124,378.000 390.754,378.000 390.912 C 378.000 391.530,379.454 391.157,380.000 390.400 C 380.317 389.960,380.822 389.600,381.122 389.600 C 381.710 389.600,381.591 388.730,380.975 388.526 C 380.769 388.458,380.015 388.902,379.300 389.513 M376.100 391.870 C 375.053 392.600,374.930 393.200,375.829 393.200 C 376.547 393.200,377.600 392.266,377.600 391.629 C 377.600 391.051,377.176 391.119,376.100 391.870 M24.267 393.067 C 23.806 393.527,23.975 394.000,24.600 394.000 C 24.930 394.000,25.200 393.730,25.200 393.400 C 25.200 392.775,24.727 392.606,24.267 393.067 M374.000 393.367 C 374.000 393.715,374.285 394.000,374.633 394.000 C 375.340 394.000,375.217 393.139,374.475 392.892 C 374.214 392.805,374.000 393.018,374.000 393.367 M26.000 394.429 C 26.000 395.134,27.086 396.000,27.971 396.000 C 29.248 396.000,28.952 394.931,27.540 394.439 C 25.996 393.901,26.000 393.901,26.000 394.429 M371.500 394.465 C 370.213 394.935,370.025 396.000,371.229 396.000 C 372.114 396.000,373.200 395.134,373.200 394.429 C 373.200 393.923,372.969 393.928,371.500 394.465 M29.856 395.878 C 29.405 396.328,29.581 396.800,30.200 396.800 C 30.530 396.800,30.800 396.631,30.800 396.424 C 30.800 395.919,30.175 395.558,29.856 395.878 M368.400 396.167 C 368.400 396.515,368.685 396.800,369.033 396.800 C 369.740 396.800,369.617 395.939,368.875 395.692 C 368.614 395.605,368.400 395.818,368.400 396.167 M31.475 396.658 C 30.953 397.180,31.202 397.600,32.033 397.600 C 32.499 397.600,32.797 397.390,32.708 397.125 C 32.513 396.540,31.846 396.288,31.475 396.658 M366.291 396.642 C 365.856 397.078,366.382 397.600,367.257 397.600 C 367.727 397.600,367.997 397.390,367.900 397.100 C 367.710 396.529,366.694 396.239,366.291 396.642 M34.000 398.200 C 34.000 398.533,34.356 398.800,34.800 398.800 C 35.244 398.800,35.600 398.533,35.600 398.200 C 35.600 397.867,35.244 397.600,34.800 397.600 C 34.356 397.600,34.000 397.867,34.000 398.200 M363.600 398.200 C 363.600 398.533,363.956 398.800,364.400 398.800 C 364.844 398.800,365.200 398.533,365.200 398.200 C 365.200 397.867,364.844 397.600,364.400 397.600 C 363.956 397.600,363.600 397.867,363.600 398.200 M36.800 399.000 C 36.800 399.373,37.178 399.600,37.800 399.600 C 38.422 399.600,38.800 399.373,38.800 399.000 C 38.800 398.627,38.422 398.400,37.800 398.400 C 37.178 398.400,36.800 398.627,36.800 399.000 M360.400 399.000 C 360.400 399.373,360.778 399.600,361.400 399.600 C 362.022 399.600,362.400 399.373,362.400 399.000 C 362.400 398.627,362.022 398.400,361.400 398.400 C 360.778 398.400,360.400 398.627,360.400 399.000 M40.400 399.600 C 40.400 399.820,41.165 399.997,42.100 399.994 C 43.345 399.989,43.639 399.884,43.200 399.600 C 42.410 399.090,40.400 399.090,40.400 399.600 M356.000 399.600 C 355.561 399.884,355.863 399.989,357.124 399.994 C 358.172 399.998,358.750 399.843,358.600 399.600 C 358.286 399.093,356.785 399.093,356.000 399.600 " stroke="none" fill="#f8f8f6" fill-rule="evenodd"></path><path id="path4" d="M111.859 76.011 C 109.616 76.683,108.009 78.149,106.829 80.600 C 105.388 83.593,103.600 87.571,103.600 87.784 C 103.600 87.872,103.079 89.082,102.443 90.472 C 101.806 91.862,100.882 93.900,100.390 95.000 C 99.897 96.100,98.978 98.130,98.347 99.510 C 97.716 100.891,97.200 102.093,97.200 102.182 C 97.200 102.271,96.680 103.482,96.044 104.872 C 94.911 107.348,93.713 110.001,92.100 113.600 C 91.657 114.590,90.709 116.750,89.994 118.400 C 89.279 120.050,88.088 122.718,87.347 124.329 C 86.606 125.940,86.000 127.317,86.000 127.389 C 86.000 127.462,85.273 129.080,84.384 130.985 C 83.496 132.891,82.402 135.381,81.953 136.518 C 81.505 137.655,80.726 139.489,80.223 140.593 C 79.719 141.697,78.903 143.500,78.411 144.600 C 77.918 145.700,76.994 147.738,76.357 149.128 C 75.721 150.518,75.200 151.728,75.200 151.816 C 75.200 151.904,74.766 152.927,74.235 154.088 C 73.704 155.250,72.556 157.820,71.682 159.800 C 70.809 161.780,69.604 164.480,69.006 165.800 C 68.407 167.120,67.766 168.560,67.582 169.000 C 67.397 169.440,66.644 171.150,65.908 172.800 C 63.198 178.877,63.112 180.366,65.271 183.900 L 66.065 185.200 136.333 185.195 L 206.600 185.190 207.580 183.695 C 208.267 182.646,208.608 181.475,208.722 179.770 C 208.890 177.255,208.938 177.412,206.108 171.200 C 205.557 169.990,204.879 168.364,204.601 167.586 C 204.323 166.808,203.292 164.468,202.310 162.386 C 201.328 160.304,200.248 157.970,199.910 157.200 C 197.166 150.941,195.005 146.080,193.547 142.890 C 192.916 141.509,192.400 140.304,192.400 140.211 C 192.400 140.118,191.790 138.728,191.044 137.121 C 188.946 132.601,187.600 129.593,187.600 129.426 C 187.600 129.342,186.790 127.540,185.800 125.422 C 184.810 123.303,184.000 121.491,184.000 121.395 C 184.000 121.299,183.460 120.041,182.800 118.600 C 182.140 117.159,181.600 115.908,181.600 115.819 C 181.600 115.731,180.949 114.250,180.153 112.529 C 179.357 110.808,177.762 107.240,176.609 104.600 C 175.456 101.960,174.107 98.900,173.611 97.800 C 173.115 96.700,172.346 94.990,171.901 94.000 C 171.457 93.010,170.578 91.070,169.947 89.690 C 169.316 88.309,168.800 87.108,168.800 87.019 C 168.800 86.766,166.044 80.712,165.423 79.600 C 164.578 78.086,162.281 76.380,160.548 75.978 C 158.581 75.522,113.389 75.552,111.859 76.011 M325.398 80.279 L 324.676 81.400 325.538 80.638 L 326.400 79.876 326.400 178.278 C 326.400 234.074,326.247 277.183,326.047 277.840 C 325.852 278.478,325.460 279.810,325.175 280.800 C 324.398 283.495,323.123 285.888,319.176 292.059 C 317.209 295.134,315.600 297.745,315.600 297.860 C 315.600 297.975,315.085 298.819,314.456 299.735 C 313.224 301.528,313.158 301.632,305.200 314.200 C 297.936 325.674,298.387 325.071,297.734 324.178 C 297.227 323.484,297.200 323.491,297.200 324.300 C 297.200 324.769,297.391 325.271,297.625 325.416 C 298.127 325.726,299.600 324.499,299.600 323.771 C 299.600 323.494,299.750 323.207,299.933 323.133 C 300.368 322.959,303.200 318.502,303.200 317.992 C 303.200 317.777,303.380 317.600,303.600 317.600 C 303.820 317.600,304.000 317.416,304.000 317.191 C 304.000 316.706,306.069 313.458,306.500 313.267 C 306.665 313.193,306.800 312.945,306.800 312.714 C 306.800 312.484,307.430 311.419,308.200 310.347 C 308.970 309.275,309.600 308.318,309.600 308.221 C 309.600 308.123,312.030 304.250,315.000 299.615 C 317.970 294.979,320.400 291.024,320.400 290.826 C 320.400 290.629,320.535 290.407,320.700 290.333 C 321.617 289.926,325.193 283.024,326.077 279.955 C 326.673 277.884,327.052 80.092,326.461 79.501 C 326.272 79.312,325.797 79.659,325.398 80.279 M145.663 107.086 C 162.896 113.025,171.339 132.381,163.127 147.119 C 162.242 148.708,162.467 149.257,164.879 151.392 C 165.826 152.230,169.432 155.676,172.893 159.052 L 179.186 165.188 191.050 165.294 C 203.662 165.407,204.187 165.493,203.476 167.346 C 203.251 167.932,201.928 168.000,190.709 168.000 L 178.193 168.000 173.797 163.565 C 171.379 161.125,167.484 157.342,165.142 155.159 L 160.884 151.189 158.542 153.631 C 151.205 161.281,139.273 165.135,130.246 162.768 C 126.174 161.701,125.229 161.374,122.530 160.101 C 109.416 153.915,102.996 137.858,108.255 124.400 C 113.931 109.875,130.930 102.007,145.663 107.086 M297.996 128.100 C 297.560 128.815,297.202 129.535,297.201 129.700 C 297.198 130.378,297.630 129.910,298.400 128.400 C 299.381 126.478,299.108 126.276,297.996 128.100 M108.806 138.033 C 108.809 138.565,108.989 139.270,109.206 139.600 C 109.482 140.022,109.523 139.785,109.342 138.800 C 109.025 137.075,108.798 136.749,108.806 138.033 M155.978 152.700 L 154.600 154.200 156.100 152.822 C 156.925 152.063,157.600 151.388,157.600 151.322 C 157.600 151.016,157.262 151.304,155.978 152.700 M211.189 201.617 C 210.651 202.488,210.074 203.200,209.906 203.200 C 209.200 203.200,210.889 208.775,213.601 215.400 C 213.781 215.840,214.337 217.593,214.836 219.295 C 215.335 220.997,215.830 222.303,215.936 222.197 C 216.043 222.091,215.896 221.238,215.611 220.302 C 214.591 216.954,213.158 212.586,212.822 211.800 C 212.634 211.360,212.264 210.370,212.000 209.600 C 211.736 208.830,211.376 207.840,211.200 207.400 C 209.841 203.995,209.841 204.175,211.201 202.198 C 211.903 201.178,212.407 200.274,212.322 200.189 C 212.237 200.104,211.727 200.747,211.189 201.617 M62.903 203.952 C 63.509 204.675,63.938 205.387,63.856 205.534 C 63.693 205.823,62.518 208.512,61.991 209.800 C 61.023 212.168,59.600 216.282,59.600 216.714 C 59.600 216.987,59.438 217.523,59.239 217.905 C 58.658 219.023,57.853 221.986,58.071 222.204 C 58.181 222.314,58.507 221.638,58.796 220.702 C 60.764 214.322,61.777 211.525,63.648 207.304 C 64.658 205.026,64.611 204.706,63.100 203.593 L 61.800 202.635 62.903 203.952 M83.336 206.707 C 82.729 207.094,80.142 213.619,77.907 220.400 C 75.551 227.549,74.828 230.175,73.554 236.200 C 72.411 241.602,72.076 253.696,72.955 257.800 C 73.461 260.159,73.525 260.285,73.361 258.600 C 72.465 249.389,72.735 242.429,74.254 235.600 C 74.572 234.170,75.024 232.100,75.259 231.000 C 75.493 229.900,75.846 228.687,76.043 228.305 C 76.239 227.923,76.400 227.316,76.400 226.955 C 76.400 226.147,79.060 217.854,80.299 214.800 C 80.522 214.250,81.017 212.990,81.400 212.000 C 81.783 211.010,82.238 209.840,82.412 209.400 C 82.585 208.960,82.828 208.285,82.951 207.900 C 83.273 206.894,191.200 206.800,191.200 207.805 C 191.200 208.138,191.362 208.723,191.559 209.105 C 191.932 209.827,192.952 212.440,193.376 213.757 C 193.509 214.174,193.728 214.405,193.862 214.272 C 194.112 214.021,192.876 210.474,191.677 208.000 L 190.998 206.600 137.399 206.505 C 107.920 206.453,83.591 206.544,83.336 206.707 M196.700 206.696 C 198.075 206.774,200.325 206.774,201.700 206.696 C 203.075 206.618,201.950 206.554,199.200 206.554 C 196.450 206.554,195.325 206.618,196.700 206.696 M109.600 212.359 C 104.483 213.395,99.882 218.044,98.579 223.495 C 97.791 226.796,97.769 285.514,98.555 288.800 C 99.704 293.602,102.235 296.878,106.367 298.912 L 108.982 300.200 135.791 300.316 L 162.600 300.431 165.210 299.416 C 168.465 298.149,171.687 295.150,173.158 292.019 L 174.200 289.800 174.200 256.200 L 174.200 222.600 173.018 220.265 C 171.660 217.582,168.569 214.567,165.733 213.160 L 163.800 212.200 137.400 212.138 C 122.880 212.104,110.370 212.203,109.600 212.359 M194.000 215.339 C 194.000 215.708,194.158 216.323,194.351 216.705 C 194.544 217.087,194.889 218.030,195.117 218.800 C 197.965 228.393,198.071 228.783,199.029 233.200 C 199.387 234.850,199.828 236.650,200.009 237.200 L 200.337 238.200 200.368 237.246 C 200.386 236.722,200.206 235.552,199.968 234.646 C 199.731 233.741,199.385 232.370,199.200 231.600 C 197.379 224.019,194.000 213.452,194.000 215.339 M57.220 224.460 C 56.982 225.417,56.618 226.830,56.410 227.600 C 55.879 229.571,55.566 231.479,55.395 233.800 C 55.240 235.890,55.330 235.639,56.037 232.000 C 56.699 228.596,57.210 226.339,57.690 224.698 C 57.932 223.872,58.022 223.089,57.891 222.958 C 57.760 222.827,57.458 223.502,57.220 224.460 M216.167 223.800 C 217.418 229.236,217.871 231.536,218.805 237.200 C 219.374 240.651,219.520 241.151,219.392 239.200 C 219.231 236.771,219.073 235.693,218.037 230.000 C 217.428 226.657,216.532 223.196,216.194 222.882 C 216.027 222.727,216.015 223.140,216.167 223.800 M158.369 225.800 C 160.533 226.997,162.270 228.948,163.533 231.600 C 164.132 232.857,164.200 235.384,164.200 256.400 L 164.200 279.800 163.297 281.612 C 161.870 284.477,160.164 286.261,157.692 287.475 L 155.400 288.600 136.120 288.600 C 121.229 288.600,116.726 288.486,116.340 288.100 C 116.065 287.825,115.548 287.600,115.192 287.600 C 114.135 287.600,111.250 284.859,109.985 282.653 L 108.808 280.600 108.804 256.521 L 108.800 232.442 109.753 230.650 C 111.237 227.859,113.806 225.626,116.415 224.861 C 117.285 224.605,124.944 224.481,137.000 224.527 L 156.200 224.600 158.369 225.800 M116.491 227.668 C 111.074 230.295,111.127 229.987,111.278 257.800 L 111.400 280.200 112.336 281.706 C 112.851 282.534,114.111 283.794,115.136 284.506 L 117.000 285.800 136.231 285.800 L 155.463 285.800 157.414 284.594 C 158.834 283.716,159.669 282.806,160.482 281.248 L 161.600 279.109 161.591 256.454 C 161.579 224.290,163.711 226.790,136.304 226.820 C 118.830 226.839,118.141 226.869,116.491 227.668 M54.697 236.800 C 54.540 237.350,54.430 238.700,54.452 239.800 L 54.494 241.800 54.860 239.600 C 55.286 237.038,55.175 235.130,54.697 236.800 M70.200 239.200 C 70.048 239.891,70.007 240.541,70.109 240.642 C 70.211 240.744,70.409 240.253,70.550 239.550 C 70.883 237.883,70.560 237.560,70.200 239.200 M200.685 240.400 C 201.029 243.417,201.030 260.048,200.687 263.000 L 200.409 265.400 201.054 262.600 C 201.937 258.770,201.931 244.573,201.045 240.800 L 200.435 238.200 200.685 240.400 M54.160 247.800 C 54.161 251.100,54.222 252.397,54.298 250.682 C 54.373 248.967,54.372 246.267,54.297 244.682 C 54.221 243.097,54.159 244.500,54.160 247.800 M219.715 250.800 C 219.717 256.284,219.816 258.205,220.015 256.600 C 220.402 253.485,220.403 247.591,220.017 244.800 C 219.817 243.352,219.713 245.404,219.715 250.800 M69.701 244.600 C 69.705 245.480,69.787 245.793,69.883 245.295 C 69.979 244.798,69.975 244.078,69.875 243.695 C 69.775 243.313,69.696 243.720,69.701 244.600 M216.944 250.400 C 216.944 252.490,217.012 253.345,217.094 252.300 C 217.176 251.255,217.176 249.545,217.094 248.500 C 217.012 247.455,216.944 248.310,216.944 250.400 M69.701 253.800 C 69.705 254.680,69.787 254.993,69.883 254.495 C 69.979 253.998,69.975 253.278,69.875 252.895 C 69.775 252.513,69.696 252.920,69.701 253.800 M54.628 256.600 C 54.934 261.186,56.553 270.369,57.554 273.200 C 57.748 273.750,58.132 275.010,58.407 276.000 C 59.067 278.375,61.526 285.984,61.963 287.000 C 62.152 287.440,62.808 289.060,63.420 290.600 C 65.750 296.459,67.630 300.503,67.899 300.234 C 68.013 300.120,67.635 299.062,67.059 297.884 C 65.575 294.851,60.800 282.861,60.800 282.167 C 60.800 281.849,60.638 281.277,60.439 280.895 C 60.240 280.513,59.883 279.480,59.645 278.600 C 59.408 277.720,58.781 275.470,58.254 273.600 C 57.727 271.730,57.077 269.120,56.809 267.800 C 56.542 266.480,56.155 264.590,55.950 263.600 C 55.745 262.610,55.322 260.000,55.009 257.800 C 54.535 254.468,54.472 254.267,54.628 256.600 M218.692 264.600 C 217.997 269.352,217.544 271.900,216.843 275.000 C 216.087 278.352,215.940 279.410,216.318 278.800 C 217.186 277.399,219.782 263.047,219.538 261.000 C 219.458 260.330,219.085 261.919,218.692 264.600 M73.642 261.440 C 73.619 261.902,73.761 262.802,73.957 263.440 C 74.153 264.078,74.539 265.680,74.815 267.000 C 75.549 270.518,78.454 279.800,80.068 283.788 C 81.366 286.995,81.469 287.253,82.621 290.200 C 83.223 291.740,83.749 293.360,83.790 293.800 C 83.852 294.470,84.250 294.640,86.232 294.848 C 91.339 295.383,98.000 299.086,98.000 301.391 C 98.000 301.936,95.438 304.800,94.950 304.800 C 94.828 304.800,94.025 304.199,93.167 303.465 C 87.618 298.715,79.136 298.922,74.752 303.916 C 70.334 308.948,70.618 315.474,75.489 320.796 C 76.657 322.073,76.647 322.156,75.100 324.020 C 73.430 326.032,73.241 326.008,70.985 323.500 C 65.853 317.794,64.984 309.557,68.828 303.042 L 69.647 301.654 68.824 301.213 C 67.946 300.743,67.710 301.150,68.437 301.877 C 68.754 302.194,68.693 302.592,68.217 303.317 C 64.425 309.105,65.490 318.101,70.658 323.938 C 72.890 326.459,73.360 326.483,75.609 324.191 C 77.562 322.201,77.591 322.456,75.077 319.470 C 65.258 307.809,81.081 294.012,93.037 303.809 C 93.971 304.574,94.878 305.200,95.052 305.200 C 95.537 305.200,98.800 301.893,98.800 301.402 C 98.800 300.559,94.970 297.258,93.000 296.403 C 91.900 295.925,90.683 295.366,90.295 295.161 C 89.907 294.955,88.497 294.672,87.162 294.533 C 85.029 294.310,84.687 294.154,84.341 293.246 C 84.125 292.677,83.707 291.669,83.411 291.006 C 83.116 290.343,82.211 288.000,81.401 285.800 C 80.591 283.600,79.774 281.440,79.585 281.000 C 79.396 280.560,78.761 278.670,78.174 276.800 C 77.587 274.930,76.961 273.040,76.783 272.600 C 76.606 272.160,76.371 271.350,76.262 270.800 C 75.415 266.519,73.694 260.375,73.642 261.440 M199.598 267.869 C 199.338 269.151,198.962 270.613,198.763 271.119 C 198.563 271.624,198.400 272.559,198.400 273.195 C 198.400 273.832,198.240 274.452,198.044 274.573 C 197.849 274.694,197.591 275.379,197.473 276.096 C 197.354 276.813,197.151 277.940,197.021 278.600 C 196.834 279.548,196.864 279.632,197.164 279.000 C 198.158 276.906,200.702 266.169,200.300 265.767 C 200.174 265.641,199.858 266.587,199.598 267.869 M121.081 272.885 C 125.269 274.702,125.668 280.675,121.727 282.554 C 116.890 284.861,111.884 280.205,114.062 275.424 C 115.090 273.167,118.711 271.857,121.081 272.885 M117.169 275.969 C 115.419 277.720,115.911 279.990,118.163 280.555 C 121.600 281.418,123.406 276.714,120.159 275.357 C 118.427 274.633,118.526 274.613,117.169 275.969 M215.242 281.400 C 214.939 282.500,214.337 284.536,213.904 285.924 C 213.470 287.312,213.205 288.538,213.315 288.648 C 213.564 288.897,215.200 283.904,215.200 282.896 C 215.200 282.491,215.395 281.965,215.634 281.726 C 215.872 281.488,216.005 280.867,215.929 280.346 C 215.825 279.636,215.654 279.899,215.242 281.400 M196.046 281.697 C 195.780 282.634,195.417 283.760,195.238 284.200 C 195.058 284.640,194.362 286.620,193.689 288.600 C 192.106 293.260,191.057 296.093,190.715 296.628 C 190.565 296.863,189.218 297.089,187.721 297.130 C 183.343 297.250,178.742 299.237,175.705 302.318 L 173.983 304.064 175.255 305.669 C 177.322 308.279,178.056 308.409,180.299 306.559 C 183.244 304.129,185.595 303.200,188.800 303.200 C 191.027 303.200,191.645 303.353,194.600 304.632 C 195.921 305.204,198.833 308.067,199.586 309.534 C 199.849 310.048,200.141 310.392,200.234 310.299 C 201.186 309.347,196.564 304.818,193.453 303.654 C 189.704 302.251,183.655 302.897,181.500 304.929 C 181.225 305.188,180.311 305.915,179.468 306.545 L 177.937 307.689 176.734 306.545 C 174.870 304.771,174.702 304.233,175.639 303.041 C 177.882 300.189,182.888 297.951,187.772 297.617 L 190.944 297.400 191.713 295.400 C 192.136 294.300,192.629 293.040,192.809 292.600 C 193.779 290.225,195.200 286.118,195.200 285.686 C 195.200 285.413,195.362 284.877,195.561 284.495 C 196.143 283.375,196.947 280.414,196.729 280.195 C 196.618 280.085,196.311 280.761,196.046 281.697 M212.832 289.247 C 212.790 289.572,210.443 296.367,210.016 297.400 C 209.834 297.840,208.752 300.434,207.612 303.164 L 205.539 308.129 206.200 311.458 C 207.281 316.904,205.774 322.290,201.985 326.523 C 199.956 328.790,199.760 328.807,197.881 326.883 C 196.118 325.078,196.086 324.830,197.448 323.570 C 200.811 320.458,202.487 314.211,200.767 311.200 C 200.266 310.323,200.288 311.379,200.809 313.255 C 201.549 315.920,199.989 320.323,197.434 322.778 C 195.629 324.514,195.640 325.034,197.524 327.116 C 199.832 329.667,200.954 329.257,203.853 324.800 C 204.992 323.051,205.381 322.282,206.381 319.814 C 207.104 318.027,207.334 313.630,206.810 311.600 C 206.554 310.610,206.253 309.430,206.141 308.978 C 206.028 308.526,206.419 307.086,207.010 305.778 C 207.600 304.470,208.238 303.040,208.428 302.600 C 210.033 298.878,210.710 297.147,211.163 295.600 C 211.729 293.672,212.137 292.567,212.846 291.039 C 213.092 290.511,213.196 289.836,213.078 289.539 C 212.960 289.243,212.849 289.111,212.832 289.247 M194.154 296.577 C 194.032 296.894,194.003 297.479,194.089 297.877 C 194.187 298.328,194.324 298.112,194.454 297.300 C 194.671 295.938,194.530 295.596,194.154 296.577 " stroke="none" fill="#54abb4" fill-rule="evenodd"></path></g></svg>